<svg xmlns="http://www.w3.org/2000/svg" width="16" height="16" viewBox="0 0 4.233 4.233"><path d="M2.117 1.059a.132.132 0 0 0-.094.226l.7.7H1.191a.133.133 0 0 0 0 .264h1.532l-.7.7a.132.132 0 1 0 .187.187l.921-.921.005-.005.004-.004h.001l.004-.005.004-.005a.054.054 0 0 0 .007-.01v-.002l.002-.004.001-.002.002-.004.004-.007.002-.005.003-.008.001-.004.002-.008v-.005l.002-.007v-.027l-.001-.005v-.002l-.001-.005-.004-.012v-.002l-.004-.01-.001-.002v-.002L3.16 2.06c0-.001 0-.003-.002-.004v-.001l-.002-.005-.001-.001-.007-.01-.003-.005-.005-.005c0-.002-.003-.004-.004-.005l-.005-.005-.921-.921a.132.132 0 0 0-.093-.039z" style="fill:#deddda;stroke-width:.132277"/></svg>