<svg xmlns="http://www.w3.org/2000/svg" width="400" height="200"><rect width="161.053" height="114.444" x="-57.894" y="91.439" rx="23.364" ry="23.364" style="fill:#99c1f1;fill-opacity:1;stroke:none;stroke-width:2.30078;stop-color:#000"/><rect width="161.053" height="114.444" x="22.106" y="-34.561" rx="23.364" ry="23.364" style="fill:#99c1f1;fill-opacity:1;stroke:none;stroke-width:2.30078;stop-color:#000"/><rect width="161.053" height="114.444" x="22.106" y="-48.855" rx="23.364" ry="23.364" style="fill:#fff;fill-opacity:1;stroke:none;stroke-width:2.30078;stop-color:#000"/><rect width="161.053" height="114.444" x="193.337" y="-34.561" rx="23.364" ry="23.364" style="fill:#99c1f1;fill-opacity:1;stroke:none;stroke-width:2.30078;stop-color:#000"/><rect width="161.053" height="114.444" x="-57.894" y="77.145" rx="23.364" ry="23.364" style="fill:#fff;fill-opacity:1;stroke:none;stroke-width:2.30078;stop-color:#000"/><rect width="161.053" height="114.444" x="113.337" y="91.439" rx="23.364" ry="23.364" style="fill:#99c1f1;fill-opacity:1;stroke:none;stroke-width:2.30078;stop-color:#000"/><rect width="161.053" height="114.444" x="193.337" y="-48.855" rx="23.364" ry="23.364" style="fill:#fff;fill-opacity:1;stroke:none;stroke-width:2.30078;stop-color:#000"/><rect width="161.053" height="114.444" x="113.337" y="77.145" rx="23.364" ry="23.364" style="fill:#fff;fill-opacity:1;stroke:none;stroke-width:2.30078;stop-color:#000"/><rect width="161.053" height="114.444" x="366.548" y="-34.561" rx="23.364" ry="23.364" style="fill:#99c1f1;fill-opacity:1;stroke:none;stroke-width:2.30078;stop-color:#000"/><path d="m174.579 148.67-5.442-36.886 36.172-60.952 7.264 25.997-.137-35.882s37.722-37.486 52.447-24.121c14.725 13.365-7.821 51.591-7.821 51.591l-25.333 8.772 27.68-2.755-18.462 31.754-32.952 5.817 25.718 2.963-16.89 24.663z" style="fill:#d9e8f9;fill-opacity:1;stroke:none;stroke-width:1.1682px;stroke-linecap:butt;stroke-linejoin:miter;stroke-opacity:1"/><rect width="161.053" height="114.444" x="366.548" y="-48.855" rx="23.364" ry="23.364" style="fill:#fff;fill-opacity:1;stroke:none;stroke-width:2.30078;stop-color:#000"/><path d="m154.422 175.025 11.532-2.551 59.943-110.418z" style="fill:#3584e4;stroke:none;stroke-width:1.1682px;stroke-linecap:butt;stroke-linejoin:miter;stroke-opacity:1"/><rect width="161.053" height="114.444" x="286.548" y="91.439" rx="23.364" ry="23.364" style="fill:#99c1f1;fill-opacity:1;stroke:none;stroke-width:2.30078;stop-color:#000"/><rect width="161.053" height="114.444" x="286.548" y="77.145" rx="23.364" ry="23.364" style="fill:#fff;fill-opacity:1;stroke:none;stroke-width:2.30078;stop-color:#000"/><rect width="161.053" height="114.444" x="-149.894" y="-34.561" rx="23.364" ry="23.364" style="fill:#99c1f1;fill-opacity:1;stroke:none;stroke-width:2.30078;stop-color:#000"/><rect width="161.053" height="114.444" x="-149.894" y="-48.855" rx="23.364" ry="23.364" style="fill:#fff;fill-opacity:1;stroke:none;stroke-width:2.30078;stop-color:#000"/></svg>